<?xml version="1.0" standalone="no"?>
<!DOCTYPE svg PUBLIC "-//W3C//DTD SVG 20010904//EN"
 "http://www.w3.org/TR/2001/REC-SVG-20010904/DTD/svg10.dtd">
<svg version="1.0" xmlns="http://www.w3.org/2000/svg"
 width="100.000000pt" height="100.000000pt" viewBox="0 0 100.000000 100.000000"
 preserveAspectRatio="xMidYMid meet">
<metadata>
Created by potrace 1.16, written by Peter Selinger 2001-2019
</metadata>
<g transform="translate(0.000000,100.000000) scale(0.100000,-0.100000)"
fill="#000000" stroke="none">
<path d="M0 500 l0 -500 500 0 500 0 0 500 0 500 -500 0 -500 0 0 -500z m510
346 l0 -55 -50 -27 c-47 -26 -50 -30 -50 -67 l0 -39 44 26 c25 14 51 26 58 26
7 -1 54 -25 103 -54 l90 -52 3 -206 2 -206 -57 -32 c-32 -18 -77 -44 -100 -57
l-43 -25 0 55 0 56 50 27 c47 26 50 30 50 67 l0 39 -44 -26 c-25 -14 -51 -26
-58 -26 -7 1 -53 25 -103 54 l-90 52 -3 206 -2 206 97 55 c54 31 99 56 101 57
1 0 2 -24 2 -54z"/>
<path d="M452 573 l-43 -26 3 -59 3 -59 48 -27 47 -27 48 27 47 27 3 59 3 60
-45 26 c-54 32 -60 32 -114 -1z"/>
</g>
</svg>
